<svg width="800" height="400" viewBox="0 0 800 400" fill="none" xmlns="http://www.w3.org/2000/svg">
  <rect width="800" height="400" rx="8" fill="#1E293B"/>

  <!-- App Background -->
  <rect x="100" y="50" width="600" height="300" rx="8" fill="#0F172A"/>

  <!-- Input Box -->
  <rect x="150" y="100" width="500" height="50" rx="6" fill="#334155"/>
  <text x="170" y="130" font-family="sans-serif" font-size="16" fill="#CBD5E1">https://github.com/debasish26</text>

  <!-- QR Code -->
  <rect x="300" y="170" width="200" height="200" rx="8" fill="#FFFFFF"/>

  <!-- QR Code Pattern (simplified) -->
  <rect x="320" y="190" width="40" height="40" rx="4" fill="#000000"/>
  <rect x="440" y="190" width="40" height="40" rx="4" fill="#000000"/>
  <rect x="320" y="310" width="40" height="40" rx="4" fill="#000000"/>

  <rect x="380" y="190" width="20" height="20" rx="2" fill="#000000"/>
  <rect x="420" y="210" width="20" height="20" rx="2" fill="#000000"/>
  <rect x="380" y="250" width="20" height="20" rx="2" fill="#000000"/>
  <rect x="340" y="270" width="20" height="20" rx="2" fill="#000000"/>
  <rect x="400" y="290" width="20" height="20" rx="2" fill="#000000"/>
  <rect x="440" y="270" width="20" height="20" rx="2" fill="#000000"/>
  <rect x="420" y="310" width="20" height="20" rx="2" fill="#000000"/>
  <rect x="380" y="330" width="20" height="20" rx="2" fill="#000000"/>

  <!-- Title -->
  <text x="300" y="80" font-family="sans-serif" font-size="24" font-weight="bold" fill="#FFFFFF">QR Code Generator</text>
</svg>
